Coordinates
version=1
nRows=13
nColumns=36
inDegrees=yes

Units are S.I. units (second, meters, Newtons, ...)
If the header above contains a line with 'inDegrees', this indicates whether rotational values are in degrees (yes) or radians (no).

endheader
time	pelvis_tilt	pelvis_list	pelvis_rotation	pelvis_tx	pelvis_ty	pelvis_tz	hip_flexion_r	hip_adduction_r	hip_rotation_r	knee_angle_r	knee_angle_r_beta	ankle_angle_r	subtalar_angle_r	mtp_angle_r	hip_flexion_l	hip_adduction_l	hip_rotation_l	knee_angle_l	knee_angle_l_beta	ankle_angle_l	subtalar_angle_l	mtp_angle_l	lumbar_extension	lumbar_bending	lumbar_rotation	arm_flex_r	arm_add_r	arm_rot_r	elbow_flex_r	pro_sup_r	arm_flex_l	arm_add_l	arm_rot_l	elbow_flex_l	pro_sup_l
      0.00000000	     20.29284747	     -1.22686963	      1.07760057	     -0.56082046	      0.59668654	     -0.65647979	     73.10939259	    -16.24405088	      5.65590281	    105.90164458	      1.84833238	     19.48836621	      8.60048120	     -4.06938247	     74.76812633	     -6.47488961	     13.17373130	    104.72898327	      1.82786558	     15.31553935	     21.20837777	     -4.06938247	    -39.11217880	      2.90202161	      0.70912006	      5.83760994	    -10.81823518	     16.78243090	    129.69876257	    106.05301154	     12.88261185	    -14.42875342	     36.59565088	    128.21360072	    107.54731346
      0.01000000	     20.40147113	     -1.21230692	      1.06851472	     -0.56114407	      0.59659609	     -0.65644482	     73.04524205	    -16.19281503	      5.69378498	    105.90892902	      1.84845952	     19.16991489	      8.22442853	     -4.23232713	     74.69439063	     -6.46169224	     13.13109084	    104.70877763	      1.82751293	     14.84017551	     20.57889052	     -4.23232713	    -38.89954534	      2.88718176	      0.69153290	      5.76621802	    -10.76134789	     16.78670005	    129.91544606	    104.52302622	     12.71481790	    -14.39004318	     36.49262719	    128.53257571	    105.97453822
      0.02000000	     20.62653320	     -1.33575447	      1.02144389	     -0.56157823	      0.59667654	     -0.65633502	     72.76940490	    -16.02821284	      5.59249436	    105.89866951	      1.84828046	     19.40395443	      8.43645943	     -4.54772967	     74.48545387	     -6.58922410	     13.30643381	    104.73529020	      1.82797566	     15.28955700	     21.19950751	     -4.54772967	    -38.73996035	      2.98901878	      0.86331966	      5.77853426	    -10.79092874	     16.64474607	    129.61300379	    107.07297404	     12.77045285	    -14.38020443	     36.28668448	    127.92209737	    109.99942329
      0.03000000	     20.67839674	     -1.53678311	      1.02391154	     -0.56189252	      0.59604559	     -0.65650550	     72.70361433	    -15.90088276	      5.41138925	    105.90098460	      1.84832086	     19.35648876	      8.29338161	     -4.82587348	     74.59249176	     -6.63904428	     13.54384012	    104.85782089	      1.83011422	     15.39104581	     21.30663028	     -4.82587348	    -38.36324029	      3.23576336	      0.96235734	      5.74700630	    -10.84859979	     16.64047050	    129.73909289	    105.91793823	     12.58513023	    -14.36404613	     36.21081107	    128.05735006	    109.10999349
      0.04000000	     20.72119840	     -1.82915689	      0.97932112	     -0.56226300	      0.59531722	     -0.65638727	     72.62916734	    -15.64007952	      5.16616569	    105.89909217	      1.84828783	     19.26453330	      8.16792129	     -5.16910183	     74.75743562	     -6.81125970	     13.88629343	    104.96565725	      1.83199632	     15.20447446	     21.35453815	     -5.16910183	    -37.98554960	      3.49135461	      1.18593665	      5.70771779	    -10.90780564	     16.52781645	    129.78048544	    106.46676567	     12.52151931	    -14.32237406	     36.13556709	    127.87365893	    110.28339721
      0.05000000	     20.85970010	     -2.04395856	      0.88147042	     -0.56265000	      0.59488736	     -0.65613542	     72.47859528	    -15.36195597	      5.00928842	    105.90267808	      1.84835042	     19.21780081	      8.07149108	     -5.37425065	     74.75265664	     -7.03465758	     14.12459586	    105.06745307	      1.83377299	     15.33604910	     21.78441294	     -5.37425065	    -37.69283554	      3.65690745	      1.36578762	      5.69857327	    -10.96322653	     16.61887854	    129.85576065	    105.27860583	     12.35782486	    -14.32152257	     36.07760483	    128.06053527	    109.13232167
      0.06000000	     21.07956547	     -2.01504292	      0.80737774	     -0.56325256	      0.59495530	     -0.65594412	     72.28193189	    -15.24600104	      5.10893704	    105.87004690	      1.84778090	     19.19168125	      8.07369366	     -5.55561375	     74.51430269	     -7.08020257	     14.13345111	    105.04429798	      1.83336886	     15.40317279	     21.81407403	     -5.55561375	    -37.52392027	      3.61339059	      1.40178194	      5.71537421	    -10.90495218	     16.58623056	    129.83084991	    104.83014175	     12.27884894	    -14.36202284	     36.00457498	    127.98744639	    108.88909818
      0.07000000	     21.38710667	     -1.79665587	      0.80811309	     -0.56381807	      0.59534805	     -0.65590781	     72.06269027	    -15.35531067	      5.32448036	    105.91908833	      1.84863683	     19.16376071	      8.05142936	     -5.64914801	     74.10322109	     -7.01281276	     13.87711929	    104.97585869	      1.83217437	     15.31160914	     21.86723127	     -5.64914801	    -37.40829762	      3.44149422	      1.27966250	      5.77671007	    -10.83054039	     16.66724412	    129.80264792	    104.19881237	     12.28752414	    -14.39579853	     36.04437640	    128.09887671	    108.11292374
      0.08000000	     21.61335751	     -1.46495387	      0.80440304	     -0.56426503	      0.59583154	     -0.65593624	     71.95763624	    -15.52579601	      5.69032389	    105.94503785	      1.84908974	     19.16155326	      8.13441270	     -5.72215871	     73.70088147	     -6.81620164	     13.54814821	    104.86335558	      1.83021082	     15.38040436	     21.74212528	     -5.72215871	    -37.20941785	      3.15452088	      1.12203191	      5.75766460	    -10.74553321	     16.67951545	    129.67072380	    104.11208863	     12.25446892	    -14.47584260	     36.02851313	    128.04935175	    108.06408430
      0.09000000	     21.77796835	     -1.28726034	      0.79663862	     -0.56471061	      0.59596269	     -0.65601580	     71.88606114	    -15.63017036	      5.88647293	    105.97375955	      1.84959102	     19.19272642	      8.33248712	     -5.86767500	     73.47724254	     -6.68611413	     13.33090633	    104.82143911	      1.82947924	     15.14320628	     21.16004778	     -5.86767500	    -36.90299918	      3.01691489	      1.03700928	      5.73043667	    -10.70217148	     16.49995300	    129.35935922	    106.98393764	     12.16594931	    -14.48374402	     35.69447279	    127.71869803	    110.86885469
      0.10000000	     21.98613378	     -1.28200107	      0.77434116	     -0.56539023	      0.59588439	     -0.65598166	     71.71257997	    -15.57857473	      5.91985912	    105.95335716	      1.84923494	     19.11811329	      8.29675217	     -5.98252904	     73.28600663	     -6.67989824	     13.36334556	    104.82419826	      1.82952740	     15.30860969	     21.43554216	     -5.98252904	    -36.64851188	      3.02541133	      1.06618370	      5.74220834	    -10.67305495	     16.50598411	    129.39694885	    106.23887973	     12.11295357	    -14.47255048	     35.63244758	    127.76764708	    110.07216412
      0.11000000	     22.23747825	     -1.22940846	      0.76074044	     -0.56616419	      0.59585379	     -0.65595609	     71.51384479	    -15.57719421	      5.98962965	    105.95128825	      1.84919883	     19.03494944	      8.27357657	     -6.23581769	     73.04455379	     -6.64622566	     13.29721577	    104.79985722	      1.82910256	     15.13295443	     21.11252204	     -6.23581769	    -36.44230199	      2.99175921	      1.07105394	      5.77740747	    -10.66410357	     16.40562484	    129.29296332	    107.10679475	     12.08866691	    -14.45574873	     35.43377943	    127.63259886	    111.35454908
      0.12000000	     22.48158478	     -1.17908259	      0.76623571	     -0.56692252	      0.59578098	     -0.65583756	     71.33522795	    -15.58257014	      6.05087355	    105.97117081	      1.84954584	     18.98719525	      8.26345396	     -6.38504604	     72.81845239	     -6.63851413	     13.24865905	    104.76200857	      1.82844198	     15.07555860	     21.11898631	     -6.38504604	    -36.23712868	      2.96968385	      1.01318209	      5.84375723	    -10.61057755	     16.45440777	    129.19973366	    107.00102294	     12.04990251	    -14.47804074	     35.29501622	    127.69322771	    111.29875115
